<mxfile host="app.diagrams.net" modified="2021-12-06T13:04:23.927Z" agent="5.0 (Windows NT 10.0; Win64; x64) AppleWebKit/537.36 (KHTML, like Gecko) Chrome/96.0.4664.45 Safari/537.36" etag="C18MXeWhMkYJwjKCE985" version="15.9.1" type="github" pages="3">
  <diagram id="YVzf0vT8PPq7VMXEgIzX" name="Player 1">
    <mxGraphModel dx="1278" dy="539" grid="1" gridSize="10" guides="1" tooltips="1" connect="1" arrows="1" fold="1" page="1" pageScale="1" pageWidth="827" pageHeight="1169" math="0" shadow="0">
      <root>
        <mxCell id="0" />
        <mxCell id="1" parent="0" />
      </root>
    </mxGraphModel>
  </diagram>
  <diagram id="sWJtxb8G4a7ign7xRICm" name="Player 2">
    <mxGraphModel dx="1278" dy="539" grid="1" gridSize="10" guides="1" tooltips="1" connect="1" arrows="1" fold="1" page="1" pageScale="1" pageWidth="827" pageHeight="1169" math="0" shadow="0">
      <root>
        <mxCell id="r7bG2IcTUGdEC9GFLQlL-0" />
        <mxCell id="r7bG2IcTUGdEC9GFLQlL-1" parent="r7bG2IcTUGdEC9GFLQlL-0" />
      </root>
    </mxGraphModel>
  </diagram>
  <diagram id="aDYFfOUdXcb99njN7tIG" name="Player 3">
    <mxGraphModel dx="1278" dy="539" grid="1" gridSize="10" guides="1" tooltips="1" connect="1" arrows="1" fold="1" page="1" pageScale="1" pageWidth="827" pageHeight="1169" math="0" shadow="0">
      <root>
        <mxCell id="Rb67jtuQBS-U7YNjbD8G-0" />
        <mxCell id="Rb67jtuQBS-U7YNjbD8G-1" parent="Rb67jtuQBS-U7YNjbD8G-0" />
      </root>
    </mxGraphModel>
  </diagram>
</mxfile>
